ffmpeg started on 2023-01-29 at 06:48:46
Report written to "D:/java/GitHub/pornMagnetSpringBoot/jiuse911Modeul/Logs/2023-01-29_06-48-43-622_ffreport.log"
Command line:
"D:\\java\\GitHub\\pornMagnetSpringBoot\\ffmpeg.exe" -loglevel warning -i "concat:00.ts|01.ts|02.ts|03.ts|04.ts|05.ts|06.ts|07.ts|08.ts|09.ts|10.ts|11.ts|12.ts|13.ts|14.ts|15.ts|16.ts|17.ts|18.ts|19.ts|20.ts|21.ts|22.ts|23.ts|24.ts|25.ts|26.ts|27.ts|28.ts|29.ts|30.ts|31.ts|" -map "0:v?" -map "0:a?" -map "0:s?" -metadata "date=2023-01-29T06:48:46.7034007+08:00" -metadata "encoding_tool=" -metadata "title=" -metadata "copyright=" -metadata "comment=" -metadata:s:a:0 "handler_name=" -metadata:s:a:0 "handler=" -c copy -y -bsf:a aac_adtstoasc "D:\\java\\GitHub\\pornMagnetSpringBoot\\Downloads\\\xd1\xd5\xd6\xb5\xcc\xec\xbb\xa8\xb0\xe5\xa3\xac\xb3\xac\xb7\xdb\xcd\xac\xca\xc2\xb3\xf6\xb9\xec\xcd\xb5\xc7\xe9\xa3\xa8\xb8\xfc\xb6\xe0\xcd\xea\xd5\xfb\xb0\xe6\xca\xd3\xc6\xb5\xba\xcd\xc5\xae\xcd\xac\xca\xc2\xd4\xbc\xc5\xda\xc1\xaa\xcf\xb5\xb7\xbd\xca\xbd_2023-01-29_06-48-46.mp4"
ffmpeg version N-94813-g85386c36e3-ffmpeg-for-N_m3u8DL-CLI Copyright (c) 2000-2019 the FFmpeg developers
  built with gcc 8.2.0 (GCC)
  libavutil      56. 35.100 / 56. 35.100
  libavcodec     58. 56.101 / 58. 56.101
  libavformat    58. 32.104 / 58. 32.104
  libavfilter     7. 58.102 /  7. 58.102
  libavresample   4.  0.  0 /  4.  0.  0
  libswresample   3.  6.100 /  3.  6.100
Input #0, mpegts, from 'concat:00.ts|01.ts|02.ts|03.ts|04.ts|05.ts|06.ts|07.ts|08.ts|09.ts|10.ts|11.ts|12.ts|13.ts|14.ts|15.ts|16.ts|17.ts|18.ts|19.ts|20.ts|21.ts|22.ts|23.ts|24.ts|25.ts|26.ts|27.ts|28.ts|29.ts|30.ts|31.ts|':
  Duration: 00:05:15.69, start: 1.443444, bitrate: 410 kb/s
  Program 1 
    Metadata:
      service_name    : Service01
      service_provider: FFmpeg
    Stream #0:0[0x100]: Video: h264 ([27][0][0][0] / 0x001B), yuv420p(progressive), 202x360, 30 fps, 30 tbr, 90k tbn, 60 tbc
    Stream #0:1[0x101](und): Audio: aac ([15][0][0][0] / 0x000F), 44100 Hz, stereo, fltp, 4 kb/s
Output #0, mp4, to 'D:\java\GitHub\pornMagnetSpringBoot\Downloads\颜值天花板，超粉同事出轨偷情（更多完整版视频和女同事约炮联系方式_2023-01-29_06-48-46.mp4':
  Metadata:
    date            : 2023-01-29T06:48:46.7034007+08:00
    encoder         : Lavf58.32.104
    Stream #0:0: Video: h264 (avc1 / 0x31637661), yuv420p(progressive), 202x360, q=2-31, 30 fps, 30 tbr, 90k tbn, 90k tbc
    Stream #0:1(und): Audio: aac (mp4a / 0x6134706D), 44100 Hz, stereo, fltp, 4 kb/s
Stream mapping:
  Stream #0:0 -> #0:0 (copy)
  Stream #0:1 -> #0:1 (copy)
Press [q] to stop, [?] for help
frame= 9470 fps=0.0 q=-1.0 Lsize=   14431kB time=00:05:15.62 bitrate= 374.5kbits/s speed=3.33e+03x    
video:9294kB audio:4818kB subtitle:0kB other streams:0kB global headers:0kB muxing overhead: 2.260307%
